<?xml version="1.0" standalone="no"?>
<!DOCTYPE svg PUBLIC "-//W3C//DTD SVG 20010904//EN"
 "http://www.w3.org/TR/2001/REC-SVG-20010904/DTD/svg10.dtd">
<svg version="1.0" xmlns="http://www.w3.org/2000/svg"
 width="900.000000pt" height="900.000000pt" viewBox="0 0 900.000000 900.000000"
 preserveAspectRatio="xMidYMid meet">
<metadata>
Created by potrace 1.14, written by Peter Selinger 2001-2017
</metadata>
<g transform="translate(0.000000,900.000000) scale(0.100000,-0.100000)"
fill="#000000" stroke="none">
<path d="M380 7734 c-45 -20 -96 -69 -123 -119 l-22 -40 0 -2400 0 -2400 27
-52 c30 -57 77 -98 135 -119 31 -11 320 -13 1591 -14 l1554 0 -6 -37 c-3 -21
-24 -216 -47 -433 -23 -217 -46 -400 -51 -407 -5 -6 -80 -65 -166 -129 -185
-139 -212 -162 -212 -186 0 -38 33 -98 65 -118 32 -20 46 -20 1343 -20 l1311
0 36 31 c39 35 62 97 46 128 -6 10 -94 81 -196 157 -114 86 -185 145 -185 156
0 9 -18 204 -40 433 -22 229 -40 418 -40 421 0 2 712 4 1583 4 l1583 0 52 26
c29 14 66 42 82 62 64 78 60 -94 60 2486 l0 2351 -28 60 c-39 81 -73 119 -134
149 l-52 26 -4065 0 c-3608 -1 -4070 -2 -4101 -16z m8186 -100 c15 -11 37 -33
48 -48 l21 -27 0 -2372 c0 -2352 0 -2372 -20 -2411 -11 -22 -33 -49 -48 -60
l-28 -21 -4053 -3 -4053 -2 -34 23 c-19 12 -42 38 -51 57 -17 33 -18 168 -18
2398 0 1979 2 2368 14 2395 18 43 57 77 98 87 18 4 1847 7 4065 7 l4032 -2 27
-21z m-3283 -5066 c3 -18 24 -222 47 -453 23 -231 43 -429 45 -440 3 -12 78
-75 190 -159 102 -76 182 -143 178 -147 -7 -7 -2497 -16 -2560 -10 -34 3 2 38
171 165 170 128 185 141 190 175 3 20 24 216 46 436 22 220 43 415 46 433 l5
32 818 0 819 0 5 -32z"/>
<path d="M591 7391 c-20 -20 -20 -52 -20 -2207 1 -1235 5 -2198 10 -2211 l9
-23 3894 0 c3841 0 3895 0 3906 19 7 14 10 718 10 2206 l0 2186 -25 24 -24 25
-3871 0 c-3823 0 -3870 0 -3889 -19z m7707 -2213 l-3 -2133 -3810 0 -3810 0
-3 2120 c-1 1166 0 2126 3 2133 3 9 776 12 3815 12 l3810 0 -2 -2132z"/>
<path d="M6922 6583 c-7 -3 -19 -17 -27 -33 -14 -27 -475 -2586 -475 -2638 0
-31 33 -90 55 -98 19 -8 44 13 57 45 5 14 67 351 139 750 71 400 175 978 230
1286 100 558 106 605 78 656 -12 22 -39 38 -57 32z"/>
<path d="M3755 6556 c-25 -11 -67 -78 -251 -402 -1225 -2151 -1258 -2209
-1258 -2243 0 -24 8 -40 28 -57 l27 -24 1879 0 c1375 0 1886 3 1904 11 29 14
51 60 42 91 -7 27 -1104 1960 -1129 1988 -9 11 -27 22 -41 26 -56 14 -72 -7
-246 -313 -91 -161 -167 -292 -170 -292 -3 0 -160 271 -349 603 -330 580 -360
628 -399 626 -4 -1 -20 -7 -37 -14z m368 -839 l317 -557 -329 -578 -328 -577
-652 -3 c-358 -1 -651 -1 -651 1 0 2 216 384 481 848 264 464 558 980 652
1146 129 227 175 299 183 290 6 -7 153 -263 327 -570z m1296 -880 c259 -455
471 -830 471 -832 0 -3 -427 -5 -950 -5 -606 0 -950 4 -950 10 0 7 585 1042
901 1592 24 42 47 74 51 70 4 -4 218 -380 477 -835z"/>
<path d="M1814 5777 c-60 -36 -807 -653 -817 -676 -6 -14 -12 -65 -12 -113 0
-72 3 -91 21 -115 18 -24 668 -562 778 -644 21 -16 47 -29 58 -29 22 0 58 55
58 91 0 69 -11 79 -398 390 -207 165 -377 306 -377 312 0 6 167 144 370 308
204 164 378 310 388 326 25 39 18 120 -13 145 -26 21 -28 21 -56 5z"/>
<path d="M7128 5779 c-26 -15 -42 -86 -29 -129 9 -31 59 -75 358 -316 387
-311 413 -333 413 -343 0 -4 -169 -142 -375 -306 -260 -209 -379 -310 -390
-333 -28 -57 3 -152 49 -152 18 0 61 34 388 299 402 329 437 359 454 399 17
41 15 158 -4 203 -13 33 -815 688 -842 688 -3 0 -13 -4 -22 -10z"/>
</g>
</svg>
